<svg width="176" height="65" viewBox="0 0 176 65" fill="none" xmlns="http://www.w3.org/2000/svg">
<path d="M5.60451 43.7069H1.58867C1.47227 43.7069 1.41406 43.6485 1.41406 43.5317L1.4839 18.8941C1.4839 18.8007 1.53046 18.754 1.62359 18.754H13.0775C13.194 18.754 13.2522 18.8007 13.2522 18.8941V22.9391C13.2522 23.0325 13.2056 23.0792 13.1125 23.0792H5.77917V28.6476H13.1125C13.2056 28.6476 13.2522 28.706 13.2522 28.8227L13.2871 32.8852C13.2871 32.9786 13.2289 33.0253 13.1125 33.0253H5.77917V43.5317C5.77917 43.6485 5.72095 43.7069 5.60451 43.7069ZM31.0239 43.7069H19.4652C19.3721 43.7069 19.3255 43.6485 19.3255 43.5317L19.3604 18.9291C19.3604 18.8124 19.4187 18.754 19.5351 18.754H23.516C23.6324 18.754 23.6906 18.8124 23.6906 18.9291L23.6557 39.2941H31.0239C31.1404 39.2941 31.1985 39.3525 31.1985 39.4692V43.5317C31.1985 43.6485 31.1404 43.7069 31.0239 43.7069ZM42.9815 44.0571C41.7243 44.0571 40.5603 43.7302 39.4894 43.0765C38.4185 42.4227 37.563 41.5472 36.9227 40.4499C36.2942 39.3408 35.9799 38.1326 35.9799 36.8252L36.0497 18.8941C36.0497 18.8007 36.0963 18.754 36.1894 18.754H40.2053C40.2984 18.754 40.345 18.8007 40.345 18.8941V36.8252C40.345 37.6306 40.6011 38.3194 41.1132 38.8914C41.6254 39.4517 42.2482 39.7319 42.9815 39.7319C43.7497 39.7319 44.3899 39.4517 44.9021 38.8914C45.4143 38.3194 45.6704 37.6306 45.6704 36.8252V18.8941C45.6704 18.8007 45.7169 18.754 45.8101 18.754H49.8259C49.9191 18.754 49.9656 18.8007 49.9656 18.8941L50.0355 36.8252C50.0355 38.1443 49.7212 39.3584 49.0926 40.4674C48.4524 41.5647 47.6026 42.4403 46.5434 43.0939C45.4842 43.736 44.2969 44.0571 42.9815 44.0571ZM63.3374 43.7069H59.304C59.1995 43.7069 59.147 43.6485 59.147 43.5317V23.0792H54.5025C54.3861 23.0792 54.3279 23.0208 54.3279 22.9041L54.3628 18.8941C54.3628 18.8007 54.4094 18.754 54.5025 18.754H68.0866C68.2146 18.754 68.2788 18.8007 68.2788 18.8941V22.9041C68.2788 23.0208 68.2319 23.0792 68.1392 23.0792H63.4425L63.4771 43.5317C63.4771 43.6485 63.4307 43.7069 63.3374 43.7069ZM80.5156 43.7069H76.4821C76.3776 43.7069 76.3251 43.6485 76.3251 43.5317V23.0792H71.6804C71.5642 23.0792 71.5061 23.0208 71.5061 22.9041L71.5407 18.8941C71.5407 18.8007 71.5876 18.754 71.6804 18.754H85.2648C85.3927 18.754 85.457 18.8007 85.457 18.8941V22.9041C85.457 23.0208 85.4101 23.0792 85.3173 23.0792H80.6201L80.6553 43.5317C80.6553 43.6485 80.6089 43.7069 80.5156 43.7069ZM101.762 43.7069H90.2034C90.1101 43.7069 90.0637 43.6485 90.0637 43.5317L90.0984 18.8941C90.0984 18.8007 90.1453 18.754 90.2381 18.754H101.727C101.82 18.754 101.867 18.8124 101.867 18.9291V22.9391C101.867 23.0325 101.82 23.0792 101.727 23.0792H94.3939V28.6826H101.727C101.82 28.6826 101.867 28.7293 101.867 28.8227L101.902 32.8852C101.902 32.9786 101.855 33.0253 101.762 33.0253H94.3939V39.2941H101.762C101.855 39.2941 101.902 39.3525 101.902 39.4692V43.5668C101.902 43.6602 101.855 43.7069 101.762 43.7069ZM112.131 43.7069H108.08C107.987 43.7069 107.94 43.6485 107.94 43.5317L108.01 18.8941C108.01 18.8007 108.057 18.754 108.15 18.754H115.378C116.67 18.754 117.858 19.0692 118.94 19.6996C120.023 20.3299 120.884 21.1763 121.524 22.2386C122.176 23.3009 122.502 24.5034 122.502 25.8459C122.502 26.7214 122.368 27.5152 122.101 28.2273C121.833 28.9394 121.519 29.5407 121.158 30.031C120.808 30.5213 120.488 30.8831 120.197 31.1166C121.49 32.5525 122.135 34.2394 122.135 36.1772L122.171 43.5317C122.171 43.6485 122.112 43.7069 121.996 43.7069H117.945C117.852 43.7069 117.805 43.6718 117.805 43.6018V36.1772C117.805 35.3133 117.502 34.5662 116.897 33.9358C116.292 33.3055 115.547 32.9903 114.662 32.9903H112.305L112.27 43.5317C112.27 43.6485 112.224 43.7069 112.131 43.7069ZM115.378 23.0441H112.305V28.6826H115.378C116.112 28.6826 116.763 28.4083 117.334 27.8596C117.916 27.3109 118.207 26.6397 118.207 25.8459C118.207 25.087 117.928 24.4333 117.369 23.8847C116.81 23.3243 116.146 23.0441 115.378 23.0441ZM132.242 43.7069H128.226C128.11 43.7069 128.052 43.6485 128.052 43.5317L128.122 18.8941C128.122 18.8007 128.168 18.754 128.261 18.754H139.715C139.832 18.754 139.89 18.8007 139.89 18.8941V22.9391C139.89 23.0325 139.843 23.0792 139.75 23.0792H132.417V28.6476H139.75C139.843 28.6476 139.89 28.706 139.89 28.8227L139.925 32.8852C139.925 32.9786 139.867 33.0253 139.75 33.0253H132.417V43.5317C132.417 43.6485 132.358 43.7069 132.242 43.7069ZM157.662 43.7069H146.103C146.01 43.7069 145.963 43.6485 145.963 43.5317L145.998 18.9291C145.998 18.8124 146.056 18.754 146.173 18.754H150.153C150.27 18.754 150.328 18.8124 150.328 18.9291L150.293 39.2941H157.662C157.778 39.2941 157.836 39.3525 157.836 39.4692V43.5317C157.836 43.6485 157.778 43.7069 157.662 43.7069ZM170.492 43.7069H166.389C166.307 43.7069 166.267 43.6602 166.267 43.5668L166.301 33.3755L161.517 18.8941C161.494 18.8007 161.529 18.754 161.622 18.754H165.603C165.72 18.754 165.79 18.8007 165.812 18.8941L168.449 28.5425L171.138 18.8941C171.161 18.8007 171.22 18.754 171.313 18.754H175.329C175.422 18.754 175.457 18.8007 175.433 18.8941L170.597 33.2354L170.632 43.5668C170.632 43.6602 170.585 43.7069 170.492 43.7069Z" fill="white"/>
<path d="M97.1965 58.3543C96.6825 58.3543 96.2204 58.2647 95.8108 58.0854C95.4086 57.8988 95.0918 57.6444 94.861 57.3233C94.6302 56.9944 94.5107 56.6173 94.5034 56.1914H95.5874C95.6248 56.5573 95.7734 56.8677 96.0343 57.1216C96.3025 57.3681 96.6897 57.4914 97.1965 57.4914C97.6809 57.4914 98.0609 57.372 98.3363 57.1328C98.6196 56.8862 98.7609 56.5724 98.7609 56.1914C98.7609 55.8926 98.6788 55.6497 98.5151 55.463C98.3514 55.2762 98.1463 55.1342 97.9005 55.0371C97.6547 54.94 97.3233 54.8354 96.906 54.7233C96.3919 54.5888 95.9785 54.4543 95.6656 54.3199C95.36 54.1854 95.0957 53.9762 94.8722 53.6923C94.656 53.4009 94.5481 53.0124 94.5481 52.5267C94.5481 52.1009 94.656 51.7236 94.8722 51.3949C95.0884 51.0661 95.3901 50.8121 95.7773 50.6328C96.1723 50.4535 96.6227 50.3638 97.1294 50.3638C97.8597 50.3638 98.4553 50.5469 98.9174 50.913C99.3867 51.279 99.651 51.7647 99.7108 52.3699H98.5933C98.5559 52.071 98.3994 51.8095 98.124 51.5854C97.8485 51.3538 97.4831 51.238 97.0289 51.238C96.6042 51.238 96.2578 51.35 95.9896 51.5742C95.7215 51.7908 95.5874 52.0971 95.5874 52.4931C95.5874 52.7771 95.6656 53.0086 95.822 53.188C95.9857 53.3673 96.1835 53.5055 96.4143 53.6026C96.6529 53.6923 96.9842 53.7969 97.4088 53.9164C97.9228 54.0583 98.3363 54.2003 98.6492 54.3423C98.9621 54.4767 99.2303 54.6897 99.4538 54.9811C99.6773 55.265 99.789 55.6535 99.789 56.1466C99.789 56.5276 99.6884 56.8862 99.4873 57.2224C99.2861 57.5586 98.9883 57.8315 98.5933 58.0405C98.1983 58.2495 97.7329 58.3543 97.1965 58.3543ZM104.705 58.2759L102.302 55.5638V58.2759H101.285V49.9828H102.302V54.8578L104.66 52.1345H106.079L103.196 55.194L106.09 58.2759H104.705ZM112.311 52.1345L108.623 61.1673H107.573L108.78 58.2086L106.31 52.1345H107.439L109.361 57.1104L111.26 52.1345H112.311ZM116.838 51.1371C116.644 51.1371 116.48 51.0699 116.346 50.9354C116.212 50.8009 116.145 50.6365 116.145 50.4423C116.145 50.248 116.212 50.0836 116.346 49.9492C116.48 49.8147 116.644 49.7474 116.838 49.7474C117.024 49.7474 117.18 49.8147 117.307 49.9492C117.441 50.0836 117.508 50.248 117.508 50.4423C117.508 50.6365 117.441 50.8009 117.307 50.9354C117.18 51.0699 117.024 51.1371 116.838 51.1371ZM117.329 52.1345V58.2759H116.312V52.1345H117.329ZM121.23 58.3767C120.761 58.3767 120.34 58.2983 119.968 58.1414C119.595 57.9772 119.3 57.7531 119.085 57.469C118.869 57.1776 118.75 56.8453 118.727 56.4716H119.778C119.807 56.7781 119.949 57.028 120.202 57.2224C120.463 57.4169 120.802 57.5138 121.219 57.5138C121.606 57.5138 121.912 57.4281 122.135 57.2561C122.359 57.084 122.471 56.8677 122.471 56.6061C122.471 56.3371 122.351 56.1393 122.113 56.0121C121.874 55.8776 121.506 55.7469 121.007 55.6199C120.552 55.5003 120.18 55.3808 119.889 55.2612C119.606 55.1342 119.36 54.9512 119.152 54.7121C118.951 54.4655 118.85 54.1443 118.85 53.7483C118.85 53.4345 118.943 53.1469 119.129 52.8854C119.316 52.6239 119.58 52.4184 119.923 52.269C120.265 52.1121 120.656 52.0336 121.096 52.0336C121.774 52.0336 122.321 52.2055 122.739 52.5492C123.156 52.8928 123.379 53.3635 123.409 53.9612H122.392C122.37 53.64 122.239 53.3822 122.001 53.188C121.77 52.9937 121.457 52.8966 121.063 52.8966C120.697 52.8966 120.407 52.975 120.191 53.1319C119.975 53.2888 119.867 53.4943 119.867 53.7483C119.867 53.95 119.93 54.1181 120.057 54.2526C120.191 54.3796 120.355 54.4842 120.549 54.5664C120.75 54.6411 121.025 54.7271 121.376 54.8242C121.815 54.9437 122.172 55.0633 122.448 55.1828C122.724 55.2949 122.958 55.4667 123.152 55.6983C123.353 55.9299 123.457 56.2323 123.465 56.6061C123.465 56.9423 123.372 57.2449 123.186 57.5138C122.999 57.7828 122.735 57.9957 122.392 58.1526C122.057 58.3022 121.669 58.3767 121.23 58.3767ZM129.12 52.975V56.5949C129.12 56.8935 129.183 57.1064 129.31 57.2336C129.437 57.353 129.656 57.413 129.969 57.413H130.718V58.2759H129.802C129.236 58.2759 128.811 58.1453 128.528 57.8836C128.245 57.622 128.103 57.1927 128.103 56.5949V52.975H127.31V52.1345H128.103V50.588H129.12V52.1345H130.718V52.975H129.12ZM134.99 52.0224C135.452 52.0224 135.868 52.1233 136.241 52.325C136.614 52.5193 136.904 52.8144 137.113 53.2104C137.329 53.6064 137.437 54.0883 137.437 54.6561V58.2759H136.431V54.8017C136.431 54.1891 136.279 53.7221 135.973 53.4009C135.667 53.0721 135.25 52.9078 134.721 52.9078C134.185 52.9078 133.756 53.0759 133.436 53.4121C133.123 53.7483 132.967 54.2376 132.967 54.8802V58.2759H131.95V49.9828H132.967V53.0086C133.168 52.6948 133.444 52.4521 133.794 52.2802C134.151 52.1083 134.55 52.0224 134.99 52.0224ZM144.685 54.9699C144.685 55.1641 144.674 55.3695 144.652 55.5862H139.757C139.795 56.1914 139.999 56.666 140.372 57.0095C140.752 57.3457 141.21 57.5138 141.746 57.5138C142.186 57.5138 142.551 57.413 142.841 57.2112C143.139 57.0022 143.348 56.7254 143.467 56.3819H144.562C144.399 56.972 144.071 57.4539 143.579 57.8276C143.087 58.1935 142.477 58.3767 141.746 58.3767C141.165 58.3767 140.644 58.2462 140.182 57.9845C139.728 57.7228 139.37 57.353 139.109 56.875C138.848 56.3892 138.718 55.829 138.718 55.194C138.718 54.5589 138.845 54.0023 139.098 53.5242C139.351 53.046 139.705 52.6799 140.16 52.4259C140.622 52.1644 141.15 52.0336 141.746 52.0336C142.327 52.0336 142.841 52.1607 143.288 52.4147C143.735 52.6687 144.078 53.0198 144.316 53.4681C144.562 53.9089 144.685 54.4095 144.685 54.9699ZM143.635 54.7569C143.635 54.3684 143.549 54.0359 143.378 53.7595C143.206 53.4756 142.972 53.2627 142.674 53.1207C142.383 52.9713 142.059 52.8966 141.702 52.8966C141.188 52.8966 140.748 53.0609 140.383 53.3897C140.025 53.7184 139.82 54.1742 139.768 54.7569H143.635ZM150.023 49.9828V58.2759H149.006V49.9828H150.023ZM152.282 51.1371C152.088 51.1371 151.924 51.0699 151.79 50.9354C151.656 50.8009 151.589 50.6365 151.589 50.4423C151.589 50.248 151.656 50.0836 151.79 49.9492C151.924 49.8147 152.088 49.7474 152.282 49.7474C152.468 49.7474 152.625 49.8147 152.751 49.9492C152.885 50.0836 152.952 50.248 152.952 50.4423C152.952 50.6365 152.885 50.8009 152.751 50.9354C152.625 51.0699 152.468 51.1371 152.282 51.1371ZM152.773 52.1345V58.2759H151.756V52.1345H152.773ZM161.871 52.0224C162.348 52.0224 162.772 52.1233 163.145 52.325C163.517 52.5193 163.812 52.8144 164.027 53.2104C164.244 53.6064 164.351 54.0883 164.351 54.6561V58.2759H163.346V54.8017C163.346 54.1891 163.193 53.7221 162.888 53.4009C162.59 53.0721 162.184 52.9078 161.669 52.9078C161.141 52.9078 160.72 53.0796 160.407 53.4233C160.094 53.7595 159.937 54.2489 159.937 54.8914V58.2759H158.932V54.8017C158.932 54.1891 158.779 53.7221 158.474 53.4009C158.176 53.0721 157.77 52.9078 157.256 52.9078C156.727 52.9078 156.306 53.0796 155.993 53.4233C155.68 53.7595 155.523 54.2489 155.523 54.8914V58.2759H154.507V52.1345H155.523V53.0199C155.725 52.6986 155.993 52.4521 156.328 52.2802C156.671 52.1083 157.047 52.0224 157.457 52.0224C157.971 52.0224 158.426 52.1383 158.82 52.3699C159.215 52.6014 159.509 52.9414 159.703 53.3897C159.874 52.9564 160.158 52.6202 160.552 52.3811C160.947 52.142 161.387 52.0224 161.871 52.0224ZM166.545 51.1371C166.351 51.1371 166.187 51.0699 166.053 50.9354C165.919 50.8009 165.852 50.6365 165.852 50.4423C165.852 50.248 165.919 50.0836 166.053 49.9492C166.187 49.8147 166.351 49.7474 166.545 49.7474C166.731 49.7474 166.887 49.8147 167.014 49.9492C167.148 50.0836 167.215 50.248 167.215 50.4423C167.215 50.6365 167.148 50.8009 167.014 50.9354C166.887 51.0699 166.731 51.1371 166.545 51.1371ZM167.037 52.1345V58.2759H166.02V52.1345H167.037ZM170.01 52.975V56.5949C170.01 56.8935 170.073 57.1064 170.2 57.2336C170.326 57.353 170.547 57.413 170.859 57.413H171.608V58.2759H170.692C170.125 58.2759 169.701 58.1453 169.418 57.8836C169.135 57.622 168.993 57.1927 168.993 56.5949V52.975H168.2V52.1345H168.993V50.588H170.01V52.1345H171.608V52.975H170.01Z" fill="white"/>
</svg>
